<?xml version="1.0" encoding="utf-8"?>
<!-- Generator: Adobe Illustrator 12.0.0, SVG Export Plug-In  -->
<!DOCTYPE svg PUBLIC "-//W3C//DTD SVG 1.1//EN" "http://www.w3.org/Graphics/SVG/1.1/DTD/svg11.dtd" [
	<!ENTITY ns_flows "http://ns.adobe.com/Flows/1.0/">
	<!ENTITY ns_svg "http://www.w3.org/2000/svg">
	<!ENTITY ns_xlink "http://www.w3.org/1999/xlink">
]>
<svg  version="1.1" xmlns="&ns_svg;" xmlns:xlink="&ns_xlink;" xmlns:a="http://ns.adobe.com/AdobeSVGViewerExtensions/3.0/"
	 width="23" height="13" viewBox="-0.959 -0.76 23 13" enable-background="new -0.959 -0.76 23 13" xml:space="preserve">
<defs>
</defs>
<path d="M13.061,0h3.449v3.25h-3.449V0z M13.581,1.58c0,0.03,0,0.05,0,0.08c0,0.02,0,0.03,0,0.05s0,0.04,0,0.06v0.01
	c0.01,0.02,0.01,0.04,0.01,0.07c0.011,0,0.011,0.01,0.011,0.02c0,0.02,0.01,0.04,0.01,0.05c0.011,0.03,0.011,0.05,0.021,0.07
	c0.011,0.03,0.021,0.05,0.03,0.08c0.02,0.04,0.04,0.07,0.05,0.11c0.021,0.02,0.03,0.04,0.04,0.06c0.01,0.02,0.021,0.03,0.03,0.05
	s0.028,0.04,0.04,0.05c0.02,0.02,0.029,0.04,0.05,0.06s0.03,0.04,0.05,0.06l0.01,0.01c0.021,0.01,0.03,0.021,0.051,0.04
	c0.011,0.01,0.029,0.021,0.041,0.03c0.02,0.01,0.028,0.03,0.039,0.04c0.021,0.01,0.039,0.02,0.061,0.03
	c0.02,0.02,0.04,0.03,0.061,0.04c0.051,0.03,0.101,0.05,0.149,0.07c0.03,0.01,0.05,0.021,0.069,0.03
	c0.021,0.01,0.041,0.01,0.07,0.02c0.039,0.01,0.079,0.02,0.119,0.03c0.04,0.01,0.07,0.01,0.11,0.02c0.04,0,0.08,0.01,0.12,0.01
	c0.02,0,0.039,0,0.06,0c0.011,0,0.021,0,0.03,0c0.07,0,0.14,0,0.199-0.01h0.011c0.03,0,0.05,0,0.069-0.01
	c0.041,0,0.07-0.01,0.109-0.01c0.021,0,0.04-0.01,0.061-0.01c0.029-0.01,0.061-0.02,0.08-0.02c0.021-0.01,0.041-0.01,0.061-0.02
	c0.021-0.01,0.04-0.01,0.061-0.02l0.021-0.01c0.01,0,0.03-0.01,0.04-0.01c0.02-0.01,0.05-0.02,0.08-0.03
	c0.01-0.01,0.029-0.02,0.05-0.03c0.021-0.01,0.04-0.01,0.05-0.02c0.01-0.01,0.021-0.01,0.03-0.01V2.17
	c-0.01,0.01-0.01,0.01-0.021,0.01L15.783,2.2c-0.03,0.02-0.061,0.04-0.09,0.05c-0.03,0.02-0.062,0.04-0.092,0.05
	c-0.06,0.03-0.108,0.05-0.158,0.07c-0.102,0.03-0.19,0.05-0.271,0.07c-0.01,0-0.01,0-0.02,0c-0.031,0.01-0.053,0.01-0.071,0.01
	c-0.03,0-0.06,0-0.08,0.01c-0.021,0-0.03,0-0.05,0c-0.03,0-0.061,0-0.102-0.01c-0.029,0-0.068,0-0.108-0.01
	c-0.07-0.01-0.13-0.03-0.19-0.05c-0.01,0-0.02-0.01-0.029-0.01s-0.021-0.01-0.021-0.01c-0.01,0-0.021-0.01-0.03-0.01
	c-0.02-0.01-0.039-0.02-0.06-0.03c-0.021-0.01-0.03-0.02-0.04-0.02c-0.01-0.01-0.021-0.02-0.03-0.02
	c-0.01-0.01-0.021-0.02-0.04-0.03c-0.01-0.01-0.02-0.02-0.029-0.03L14.25,2.22V2.21L14.24,2.2L14.18,2.14
	c-0.01-0.01-0.02-0.02-0.02-0.03c-0.01-0.01-0.021-0.02-0.03-0.04c0-0.01-0.01-0.02-0.021-0.03C14.1,2.03,14.1,2.01,14.09,2
	c-0.01-0.02-0.01-0.03-0.02-0.04c-0.01-0.03-0.021-0.05-0.021-0.07c-0.01-0.02-0.01-0.03-0.021-0.05
	c-0.008-0.05-0.02-0.09-0.02-0.12c0-0.02,0-0.03,0-0.04c0-0.02,0-0.04,0-0.05c0-0.01,0-0.02,0-0.03c0-0.02,0-0.05,0.012-0.09
	c0-0.02,0-0.05,0.01-0.07c0-0.02,0.01-0.03,0.01-0.05c0.01-0.02,0.01-0.03,0.02-0.05c0-0.01,0.012-0.02,0.012-0.03
	c0.01-0.02,0.02-0.03,0.02-0.05c0.01-0.01,0.021-0.02,0.021-0.03c0.02-0.03,0.039-0.05,0.05-0.08c0.01-0.01,0.021-0.02,0.021-0.03
	c0.01-0.01,0.029-0.02,0.029-0.03c0.01,0,0.021-0.01,0.021-0.02c0.078-0.08,0.17-0.14,0.27-0.18c0.01-0.01,0.03-0.01,0.04-0.02
	c0.021-0.01,0.03-0.01,0.05-0.02c0.01,0,0.03-0.01,0.051-0.01c0.01-0.01,0.029-0.01,0.039-0.01c0.021-0.01,0.041-0.01,0.051-0.01
	c0.021-0.01,0.041-0.01,0.051-0.01c0.02,0,0.04-0.01,0.05-0.01c0.04,0,0.069,0,0.101,0c0.01,0,0.021,0,0.029,0
	c0.021,0,0.04,0,0.07,0c0.01,0,0.029,0,0.04,0.01c0.028,0,0.06,0,0.079,0.01c0.021,0,0.051,0,0.07,0.01
	c0.029,0,0.061,0.01,0.09,0.02c0.011,0,0.029,0.01,0.039,0.01c0.021,0.01,0.041,0.01,0.062,0.02c0.021,0.01,0.03,0.01,0.03,0.01
	c0.029,0.01,0.05,0.02,0.068,0.03c0.03,0.01,0.051,0.02,0.08,0.03c0.021,0.01,0.04,0.02,0.061,0.03S15.684,1,15.695,1
	c0.029,0.01,0.05,0.03,0.068,0.04l0.041,0.02V0.62c0,0-0.029-0.01-0.07-0.02c-0.021-0.01-0.051-0.02-0.08-0.03
	c-0.014-0.01-0.033-0.01-0.055-0.02c-0.01,0-0.02-0.01-0.039-0.01c-0.011-0.01-0.029-0.01-0.051-0.02c-0.01,0-0.02-0.01-0.039-0.01
	H15.46c-0.01-0.01-0.03-0.01-0.04-0.02c-0.02,0-0.029,0-0.05-0.01c-0.011,0-0.021,0-0.03-0.01c-0.02,0-0.029,0-0.05-0.01
	c-0.021,0-0.04,0-0.06-0.01c-0.012,0-0.03,0-0.041,0l-0.02-0.01c-0.029,0-0.05,0-0.08-0.01c-0.02,0-0.04,0-0.061,0
	c-0.029,0-0.061,0-0.09,0c-0.021,0-0.029,0-0.039,0c-0.03,0-0.051,0-0.08,0c-0.012,0-0.021,0-0.041,0
	c-0.021,0.01-0.039,0.01-0.061,0.01h-0.02l-0.02,0.01h-0.02c-0.01,0-0.021,0-0.03,0c-0.01,0.01-0.021,0.01-0.04,0.01
	c-0.08,0.02-0.16,0.04-0.229,0.07c-0.03,0.01-0.07,0.03-0.102,0.04c-0.029,0.02-0.05,0.03-0.08,0.05
	c-0.02,0.01-0.05,0.03-0.068,0.04c-0.012,0.01-0.03,0.02-0.041,0.03c-0.01,0.01-0.021,0.01-0.029,0.02
	c-0.02,0.02-0.04,0.03-0.061,0.05C13.96,0.78,13.941,0.8,13.92,0.81c-0.01,0.02-0.02,0.03-0.04,0.05c-0.01,0.01-0.03,0.03-0.04,0.05
	c-0.01,0.01-0.029,0.03-0.04,0.05C13.79,0.97,13.779,0.99,13.771,1C13.76,1.01,13.76,1.02,13.75,1.03
	c-0.04,0.06-0.07,0.12-0.09,0.189C13.62,1.3,13.6,1.39,13.59,1.49C13.581,1.52,13.581,1.55,13.581,1.58z"/>
<path d="M10.4,0.82h0.27c0.02,0,0.04,0,0.07,0c0.05,0.01,0.12,0.02,0.18,0.04c0.02,0.02,0.05,0.03,0.07,0.06
	c0.02,0.01,0.04,0.03,0.05,0.05c0.021,0.04,0.021,0.09,0.021,0.11c0.01,0.02,0.01,0.03,0.01,0.03s0,0.01-0.01,0.03
	c0,0.03,0,0.06-0.021,0.09c-0.01,0.03-0.03,0.06-0.05,0.09c-0.04,0.03-0.08,0.05-0.13,0.07c-0.01,0-0.02,0.01-0.03,0.01
	c-0.06,0.02-0.11,0.02-0.15,0.03c-0.02,0-0.04,0-0.05,0c-0.02,0-0.03,0-0.03,0h-0.2V0.82z"/>
<path d="M10.4,2.43V1.79c0,0,0.25,0,0.4,0c0.01,0,0.03,0.01,0.04,0.01c0.02,0,0.04,0,0.05,0c0.03,0,0.05,0.01,0.07,0.01
	c0.05,0.01,0.09,0.02,0.13,0.04c0.03,0.01,0.051,0.02,0.08,0.04c0.01,0.01,0.021,0.02,0.03,0.03c0.01,0.01,0.01,0.01,0.021,0.02
	c0.029,0.03,0.039,0.07,0.051,0.1c0,0.02,0.01,0.05,0.01,0.06c0,0.01,0,0.02,0,0.02s0,0,0,0.02c-0.01,0.03-0.01,0.08-0.051,0.13
	c-0.01,0.01-0.021,0.03-0.029,0.05c-0.04,0.03-0.09,0.06-0.15,0.08c-0.05,0.02-0.11,0.03-0.16,0.03c-0.02,0-0.04,0-0.06,0
	c-0.01,0-0.02,0-0.02,0H10.4z"/>
<path d="M9.07,0h3.459v3.25H9.07V0z M9.98,0.46V2.8h0.88c0,0,0.43,0.01,0.669-0.23c0.189-0.19,0.181-0.41,0.181-0.41
	s0.011-0.24-0.17-0.42c-0.149-0.15-0.351-0.19-0.351-0.19s0.09-0.04,0.16-0.11c0.029-0.03,0.149-0.13,0.149-0.38
	s-0.17-0.39-0.17-0.39s-0.181-0.21-0.59-0.21H9.98z"/>
<path d="M6.65,1.43c-0.02,0-0.04,0-0.04,0h-0.2V0.82h0.28c0.02,0,0.04,0,0.06,0c0.06,0.01,0.12,0.02,0.18,0.04
	c0.03,0.02,0.06,0.03,0.08,0.06c0.02,0.01,0.03,0.03,0.04,0.05c0.02,0.04,0.03,0.09,0.03,0.11s0,0.03,0,0.03s0,0.01,0,0.03
	c0,0.03-0.01,0.06-0.02,0.09C7.05,1.26,7.031,1.29,7,1.32C6.97,1.35,6.93,1.37,6.88,1.39c-0.01,0-0.02,0.01-0.03,0.01
	C6.79,1.42,6.73,1.42,6.69,1.43C6.681,1.43,6.661,1.43,6.65,1.43z"/>
<path d="M6.411,2.43V1.79c0,0,0.26,0,0.41,0c0.01,0,0.02,0.01,0.04,0.01s0.03,0,0.05,0s0.05,0.01,0.07,0.01
	c0.05,0.01,0.09,0.02,0.13,0.04c0.02,0.01,0.05,0.02,0.07,0.04c0.02,0.01,0.03,0.02,0.04,0.03c0.01,0.01,0.01,0.01,0.02,0.02
	c0.02,0.03,0.04,0.07,0.04,0.1c0.01,0.02,0.01,0.05,0.01,0.06v0.02c0,0,0,0,0,0.02c0,0.03-0.01,0.08-0.04,0.13
	c-0.01,0.01-0.02,0.03-0.04,0.05C7.17,2.35,7.121,2.38,7.07,2.4C7.01,2.42,6.95,2.43,6.91,2.43c-0.03,0-0.05,0-0.06,0
	c-0.01,0-0.02,0-0.02,0H6.411z"/>
<path d="M5.09,0h3.45v3.25H5.09V0z M5.991,2.8h0.89c0,0,0.43,0.01,0.66-0.23c0.2-0.19,0.18-0.41,0.18-0.41s0.02-0.24-0.16-0.42
	C7.411,1.59,7.21,1.55,7.21,1.55S7.3,1.51,7.37,1.44C7.4,1.41,7.51,1.31,7.51,1.06S7.35,0.67,7.35,0.67s-0.19-0.21-0.6-0.21H5.99
	L5.991,2.8L5.991,2.8z"/>
<path fill="#FF008D" d="M21.6,8.352l-0.02-0.152c-0.188-1.473-1.457-2.585-2.951-2.585c-1.104,0-2.068,0.603-2.585,1.495
	c-0.517-0.898-1.489-1.495-2.585-1.495c-0.945,0-1.788,0.442-2.336,1.13V5.629h-0.229c-0.949,0-1.795,0.447-2.339,1.141
	C8.011,6.06,7.155,5.6,6.194,5.6c-0.64,0-1.243,0.195-1.743,0.554V4.025H3.197v6.288H2.97c-0.954,0-1.729-0.771-1.729-1.715v-1.44
	h1.361V5.918H1.241V4.024H0v4.574c0,1.637,1.332,2.969,2.97,2.969h1.481V8.568c0-0.969,0.765-1.729,1.743-1.729
	c0.953,0,1.729,0.775,1.729,1.729v2.998h1.241V8.598c0-0.945,0.776-1.715,1.729-1.715h0.126c-0.343,0.485-0.544,1.076-0.544,1.715
	c0,1.637,1.337,2.969,2.983,2.969h2.41v-1.239h-2.41c-0.127,0-0.258-0.017-0.383-0.043L15.65,8.8
	c0.104,1.543,1.399,2.769,2.978,2.769h2.41v-1.24h-2.41c-0.129,0-0.258-0.016-0.383-0.043l3.222-1.855L21.6,8.352 M11.969,9.482
	c-0.156-0.269-0.24-0.57-0.24-0.885c0-0.972,0.762-1.729,1.729-1.729c0.632,0,1.212,0.343,1.504,0.871L11.969,9.482z M17.139,9.482
	C16.982,9.215,16.9,8.912,16.9,8.598c0-0.971,0.758-1.729,1.729-1.729c0.631,0,1.212,0.343,1.504,0.871L17.139,9.482z"/>
</svg>
