<?xml version="1.0" encoding="utf-8"?>
<!-- Generator: Adobe Illustrator 15.0.2, SVG Export Plug-In . SVG Version: 6.00 Build 0)  -->
<!DOCTYPE svg PUBLIC "-//W3C//DTD SVG 1.1//EN" "http://www.w3.org/Graphics/SVG/1.1/DTD/svg11.dtd">
<svg version="1.1" id="Layer_1" xmlns="http://www.w3.org/2000/svg" xmlns:xlink="http://www.w3.org/1999/xlink" x="0px" y="0px"
	 width="450px" height="450px" viewBox="-0.128 -68.877 450 450" enable-background="new -0.128 -68.877 450 450"
	 xml:space="preserve">
<g id="svg2" inkscape:version="0.46" sodipodi:version="0.32" sodipodi:docbase="C:\Users\Chris\Desktop\SVGs" sodipodi:docname="BBC_One_logo.svg" inkscape:output_extension="org.inkscape.output.svg.inkscape" xmlns:dc="http://purl.org/dc/elements/1.1/" xmlns:cc="http://creativecommons.org/ns#" xmlns:rdf="http://www.w3.org/1999/02/22-rdf-syntax-ns#" xmlns:svg="http://www.w3.org/2000/svg" xmlns:sodipodi="http://sodipodi.sourceforge.net/DTD/sodipodi-0.dtd" xmlns:inkscape="http://www.inkscape.org/namespaces/inkscape">
	
		<sodipodi:namedview  id="namedview13" guidetolerance="10.0" inkscape:window-height="480" inkscape:window-width="640" inkscape:pageshadow="2" borderopacity="1.0" inkscape:pageopacity="0.0" gridtolerance="10.0" objecttolerance="10.0" showgrid="true" bordercolor="#666666" pagecolor="#ffffff">
		<inkscape:grid  type="xygrid" id="grid2390" visible="true" enabled="true"></inkscape:grid>
	</sodipodi:namedview>
	<defs>
		
		
			<inkscape:perspective  id="perspective17" sodipodi:type="inkscape:persp3d" inkscape:vp_x="0 : 194.8819 : 1" inkscape:vp_y="0 : 1000 : 0" inkscape:vp_z="1052.3622 : 194.8819 : 1" inkscape:persp3d-origin="526.18109 : 129.92126 : 1">
			</inkscape:perspective>
	</defs>
	<g id="Layer_x0020_1" transform="translate(-3.4394046,-1.2666)">
		<path id="path10" fill="#C90302" d="M453.313-67l-0.13,449.389H3.313V14.718V-67"/>
		
			<sodipodi:namedview  inkscape:zoom="0.25612053" id="base" guidetolerance="10.0" inkscape:window-height="974" inkscape:window-width="1280" inkscape:pageshadow="2" borderopacity="1.0" inkscape:pageopacity="0.0" gridtolerance="10.0" objecttolerance="10.0" bordercolor="#666666" pagecolor="#ffffff" inkscape:cx="1329.6704" inkscape:cy="-22.75906" inkscape:window-x="-8" inkscape:window-y="-8" inkscape:current-layer="svg2413">
			</sodipodi:namedview>
	</g>
</g>
<g id="Layer_3">
</g>
<g id="Layer_2">
	<g>
		<path fill="#FFFFFF" d="M100.542,290.688c14.102-2.211,25.414-7.562,34.451-16.295c10.512-10.158,16.557-22.666,18.746-38.781
			c0.562-4.139,0.639-14.578,0.137-18.69c-1.979-16.205-8.271-29.522-18.713-39.606c-12.111-11.696-28.477-17.591-47.252-17.021
			c-14.885,0.453-27.996,5.039-38.773,13.561c-5.904,4.668-12.074,12.326-15.639,19.405c-9.604,19.084-9.77,44.944-0.41,64.077
			c3.209,6.562,6.439,11.104,11.5,16.174c10.246,10.266,22.988,15.971,39.406,17.643C86.517,291.409,97.993,291.086,100.542,290.688
			z"/>
		<path fill="#C90302" d="M84.782,267.541c-9.076-0.957-16.26-4.181-21.877-9.817c-5.533-5.554-8.73-12.479-10.264-22.236
			c-0.646-4.12-0.652-15.022-0.012-19.297c0.551-3.668,1.641-7.979,2.68-10.596c3.861-9.72,10.898-16.461,20.574-19.709
			c6.809-2.285,16.562-2.758,24.266-1.174c15.029,3.094,24.625,13.555,27.41,29.885c1.111,6.504,1.109,15.752,0,22.329
			c-3.029,17.961-14.379,28.802-32.07,30.636C92.692,267.851,87.63,267.842,84.782,267.541z"/>
		<path fill="#FFFFFF" d="M375.108,290.562c14.748-1.951,27.555-6.373,37.875-13.076c2.748-1.783,5.571-3.892,5.571-4.157
			c0-0.113-2.121-4.121-4.711-8.904l-4.711-8.698l-1.393,0.893c-19,12.154-46.931,15.455-63.672,7.523
			c-10.437-4.941-16.509-13.519-18.816-26.57l-0.145-0.821h48.737h48.74l0.133-0.567c0.752-3.221,1.088-12.055,0.658-17.24
			c-0.611-7.357-1.604-12.402-3.686-18.729c-6.484-19.707-20.88-33.07-40.923-37.995c-5.924-1.456-9.391-1.836-16.924-1.856
			c-6.992-0.021-8.879,0.135-14.018,1.151c-21.756,4.304-38.545,19.193-45.582,40.423c-3.252,9.814-4.504,20.179-3.672,30.395
			c1.824,22.381,11.829,39.751,28.793,49.997c8,4.831,16.201,7.413,28.039,8.828c0.485,0.059,4.18,0.073,8.209,0.032
			C369.384,291.13,371.827,290.997,375.108,290.562L375.108,290.562z"/>
		<path fill="#C90302" d="M325.181,214.79c0.576-5.525,2.828-11.729,6.011-16.562c1.842-2.797,6.102-7.011,9.004-8.903
			c3.979-2.597,8.67-4.38,13.944-5.3c3.666-0.64,12.041-0.558,16.043,0.16c7.298,1.303,12.814,3.896,17.479,8.215
			c5.553,5.142,9.1,12.973,9.59,21.174l0.162,2.717h-36.195h-36.192L325.181,214.79L325.181,214.79z"/>
		<path fill="#FFFFFF" d="M191.222,256.993c0-19.082,0.1-32.286,0.26-34.289c1.025-12.79,4.285-21.038,10.98-27.775
			c7.115-7.16,16.686-10.561,28.543-10.14c9.504,0.337,16.131,2.951,21.348,8.419c4.096,4.294,6.531,9.312,7.953,16.386
			c1.037,5.171,1.141,7.54,1.277,29.556c0.178,28.682,0.654,37.994,2.43,47.425l0.273,1.452h12.301h12.299l-0.461-2.842
			c-0.479-2.949-1.004-7.718-1.494-13.576c-0.172-2.043-0.365-14.549-0.482-31.195c-0.193-27.466-0.262-29.571-1.148-35.868
			c-1.322-9.386-4.475-17.935-8.891-24.106c-3.629-5.074-9.645-10.547-14.826-13.494c-12.994-7.389-30.592-8.795-45.607-3.645
			c-5.443,1.867-10.426,4.617-14.801,8.17c-2.744,2.229-6.818,6.405-8.551,8.766c-0.686,0.938-1.314,1.703-1.396,1.703
			s-0.285-1.279-0.451-2.842c-0.473-4.451-1.494-9.994-2.604-14.146l-0.254-0.947h-12.08h-12.078l0.32,1.831
			c1.076,6.201,1.797,14.661,2.133,25.066c0.135,4.17,0.248,27.729,0.25,52.354l0.004,44.771h12.377h12.377L191.222,256.993
			L191.222,256.993z"/>
		<polygon fill="#FFFFFF" points="146.187,79.333 146.187,22.967 86.185,22.967 26.181,22.967 26.181,79.333 26.181,135.7 
			86.185,135.7 146.187,135.7 		"/>
		<path fill="#C90302" d="M57.546,79.562V38.877h15.837c14.284,0,16.182,0.088,19.349,0.898c10.246,2.621,16.863,9.754,17.426,18.78
			c0.477,7.667-2.207,13.209-8.248,17.028l-1.773,1.125l2.279,0.802c5.856,2.063,10.684,6.186,13.198,11.275
			c1.678,3.396,1.71,3.55,1.71,8.731c0,5.174-0.034,5.343-1.693,8.701c-3.742,7.569-10.299,11.787-20.783,13.367
			c-3.169,0.478-8.801,0.656-20.822,0.659l-16.479,0.001L57.546,79.562L57.546,79.562z"/>
		<path fill="#FFFFFF" d="M90.908,107.046c7.581-1.097,11.64-4.863,11.64-10.803c0-3.759-1.38-6.246-4.514-8.133
			c-3.774-2.277-7.33-2.866-17.281-2.866h-8.66V96.38v11.137l7.841-0.009C84.247,107.501,89.185,107.294,90.908,107.046
			L90.908,107.046z"/>
		<path fill="#FFFFFF" d="M85.341,71.859c7.313-1.55,10.318-5.102,9.846-11.64c-0.262-3.597-1.686-5.701-4.871-7.197
			c-2.38-1.114-3.037-1.2-10.382-1.341l-7.841-0.151v10.492v10.492l5.113-0.007C80.019,72.504,83.679,72.212,85.341,71.859
			L85.341,71.859z"/>
		<polygon fill="#FFFFFF" points="284.831,79.333 284.831,22.967 224.603,22.967 164.371,22.967 164.371,79.333 164.371,135.7 
			224.603,135.7 284.831,135.7 		"/>
		<path fill="#C90302" d="M196.191,79.601V38.877l15.567,0.007c17.555,0.011,19.641,0.257,25.18,2.995
			c8.359,4.13,12.9,12.439,11.551,21.138c-0.281,1.821-0.9,4.185-1.375,5.253c-1.041,2.359-4.41,6.051-6.594,7.227
			c-1.652,0.89-2.072,1.564-0.971,1.564c1.521,0,8.053,3.798,10.387,6.04c5.139,4.938,7.385,12.629,5.625,19.248
			c-2.193,8.244-8.686,14.045-18.576,16.61c-3.453,0.895-5.205,0.986-22.271,1.168l-18.523,0.197V79.601L196.191,79.601z"/>
		<path fill="#FFFFFF" d="M233.167,106.188c7.693-2.492,10.541-10.651,5.656-16.212c-3.201-3.647-7.621-4.714-19.564-4.726
			l-8.523-0.007v11.188v11.186l9.661-0.209C228.767,107.224,230.47,107.062,233.167,106.188L233.167,106.188z"/>
		<path fill="#FFFFFF" d="M225.896,71.453c5.34-1.68,7.816-4.969,7.762-10.302c-0.035-3.348-0.809-5.202-2.926-6.98
			c-2.361-1.988-5.297-2.566-13.033-2.566h-6.963v10.518v10.519l6.479-0.248C221.062,72.246,224.587,71.864,225.896,71.453
			L225.896,71.453z"/>
		<polygon fill="#FFFFFF" points="423.021,79.333 423.021,22.967 363.019,22.967 303.017,22.967 303.017,79.333 303.017,135.7 
			363.019,135.7 423.021,135.7 		"/>
		<path fill="#C90302" d="M359.476,120.7c-16.387-2.31-29.43-11.874-35.356-25.926c-3.557-8.433-3.922-18.222-1.016-27.26
			c4.637-14.429,17.438-25.39,33.381-28.588c12.039-2.415,22.674-1.352,36.877,3.687l5.114,1.813v7.452
			c0,4.1-0.077,7.455-0.174,7.455c-0.094,0-2.496-1.107-5.34-2.46c-10.109-4.808-17.049-6.411-26.307-6.066
			c-4.849,0.179-6.314,0.423-9.979,1.662c-5.535,1.87-9.065,4.021-12.811,7.8c-5.08,5.121-7.674,11.652-7.662,19.274
			c0.014,8.093,2.504,14.265,7.893,19.569c6.052,5.949,14.021,8.905,24.148,8.951c8.975,0.041,16.521-1.966,26.022-6.926
			l5.115-2.671v7.641v7.642l-3.11,1.434c-8.525,3.928-15.697,5.501-26.209,5.742C365.812,121.021,361.048,120.921,359.476,120.7
			L359.476,120.7z"/>
	</g>
</g>
</svg>
