<?xml version="1.0" encoding="utf-8"?>
<!-- Generator: Adobe Illustrator 15.0.2, SVG Export Plug-In . SVG Version: 6.00 Build 0)  -->
<!DOCTYPE svg PUBLIC "-//W3C//DTD SVG 1.1//EN" "http://www.w3.org/Graphics/SVG/1.1/DTD/svg11.dtd">
<svg version="1.1" xmlns="http://www.w3.org/2000/svg" xmlns:xlink="http://www.w3.org/1999/xlink" x="0px" y="0px" width="450px"
	 height="450px" viewBox="0 0 450 450" enable-background="new 0 0 450 450" xml:space="preserve">
<g id="Layer_3_1_">
	<rect fill="#005E70" width="450" height="450"/>
</g>
<g id="Layer_4">
	<g>
		<g>
			<polygon fill="#FFFFFF" points="145.186,154.759 145.186,98.393 85.184,98.393 25.18,98.393 25.18,154.759 25.18,211.126 
				85.184,211.126 145.186,211.126 			"/>
			<path fill="#005E70" d="M56.544,154.988v-40.685h15.837c14.284,0,16.182,0.088,19.349,0.898
				c10.246,2.621,16.863,9.754,17.426,18.78c0.477,7.667-2.207,13.209-8.248,17.028l-1.773,1.125l2.279,0.802
				c5.856,2.063,10.684,6.186,13.198,11.275c1.678,3.396,1.71,3.55,1.71,8.731c0,5.174-0.034,5.343-1.693,8.701
				c-3.742,7.569-10.299,11.787-20.783,13.367c-3.169,0.478-8.801,0.656-20.822,0.659l-16.479,0.001L56.544,154.988L56.544,154.988z
				"/>
			<path fill="#FFFFFF" d="M89.907,182.472c7.581-1.097,11.64-4.863,11.64-10.803c0-3.759-1.38-6.246-4.514-8.133
				c-3.774-2.277-7.33-2.866-17.281-2.866h-8.66v11.136v11.137l7.841-0.009C83.246,182.927,88.184,182.72,89.907,182.472
				L89.907,182.472z"/>
			<path fill="#FFFFFF" d="M84.339,147.285c7.313-1.55,10.318-5.102,9.846-11.64c-0.262-3.597-1.686-5.701-4.871-7.197
				c-2.38-1.114-3.037-1.2-10.382-1.341l-7.841-0.151v10.492v10.492l5.113-0.007C79.018,147.93,82.678,147.638,84.339,147.285
				L84.339,147.285z"/>
			<polygon fill="#FFFFFF" points="283.829,154.759 283.829,98.393 223.602,98.393 163.37,98.393 163.37,154.759 163.37,211.126 
				223.602,211.126 283.829,211.126 			"/>
			<path fill="#005E70" d="M195.189,155.027v-40.724l15.567,0.007c17.554,0.011,19.64,0.257,25.179,2.995
				c8.359,4.13,12.9,12.439,11.551,21.138c-0.28,1.821-0.899,4.185-1.375,5.253c-1.041,2.359-4.409,6.051-6.594,7.227
				c-1.651,0.89-2.072,1.564-0.971,1.564c1.521,0,8.053,3.798,10.387,6.04c5.14,4.938,7.385,12.629,5.625,19.248
				c-2.192,8.244-8.686,14.045-18.576,16.61c-3.452,0.895-5.205,0.986-22.27,1.168l-18.523,0.197V155.027L195.189,155.027z"/>
			<path fill="#FFFFFF" d="M232.165,181.614c7.692-2.492,10.541-10.651,5.656-16.212c-3.201-3.647-7.621-4.714-19.564-4.726
				l-8.523-0.007v11.188v11.186l9.661-0.209C227.766,182.65,229.469,182.488,232.165,181.614L232.165,181.614z"/>
			<path fill="#FFFFFF" d="M224.895,146.879c5.339-1.68,7.815-4.969,7.761-10.302c-0.035-3.348-0.809-5.202-2.926-6.98
				c-2.361-1.988-5.297-2.566-13.033-2.566h-6.963v10.518v10.519l6.479-0.248C220.061,147.672,223.585,147.29,224.895,146.879
				L224.895,146.879z"/>
			<polygon fill="#FFFFFF" points="422.02,154.759 422.02,98.393 362.017,98.393 302.016,98.393 302.016,154.759 302.016,211.126 
				362.017,211.126 422.02,211.126 			"/>
			<path fill="#005E70" d="M358.474,196.126c-16.387-2.31-29.43-11.874-35.355-25.926c-3.557-8.433-3.922-18.222-1.016-27.26
				c4.637-14.429,17.438-25.39,33.381-28.588c12.039-2.415,22.674-1.352,36.877,3.687l5.114,1.813v7.452
				c0,4.1-0.077,7.455-0.175,7.455c-0.094,0-2.496-1.107-5.34-2.46c-10.108-4.808-17.049-6.411-26.307-6.066
				c-4.85,0.179-6.314,0.423-9.979,1.662c-5.535,1.87-9.064,4.021-12.811,7.8c-5.08,5.121-7.674,11.652-7.662,19.274
				c0.014,8.093,2.504,14.265,7.893,19.569c6.053,5.949,14.021,8.905,24.148,8.951c8.975,0.041,16.521-1.966,26.021-6.926
				l5.115-2.671v7.641v7.642l-3.109,1.434c-8.525,3.928-15.697,5.501-26.209,5.742C364.811,196.447,360.046,196.347,358.474,196.126
				L358.474,196.126z"/>
		</g>
		<g>
			<polygon fill="#FFFFFF" points="59.438,256.442 24.532,256.442 24.532,238.111 114.623,238.111 114.623,256.442 79.708,256.442 
				79.708,352 59.438,352 			"/>
			<polygon fill="#FFFFFF" points="135.046,238.111 157.234,238.111 178.645,320.165 178.961,320.165 204.537,238.111 
				224.478,238.111 249.571,320.165 249.901,320.165 272.264,238.111 292.885,238.111 259.713,352.013 240.432,352.013 
				214.022,265.296 213.713,265.296 187.326,352.013 168.657,352.013 			"/>
			<path fill="#FFFFFF" d="M362.047,235.205c35.551-0.637,60.621,23.176,60.621,59.691c0,35.565-25.07,59.363-60.621,60.021
				c-35.104,0-60.197-23.797-60.197-59.363C301.828,259.018,326.942,235.205,362.047,235.205 M362.2,336.565
				c23.645,0,39.224-18.01,39.224-42.327c0-22.67-15.608-40.701-39.224-40.701c-23.482,0-39.113,18.023-39.113,40.701
				C323.087,318.577,338.71,336.565,362.2,336.565z"/>
		</g>
	</g>
</g>
</svg>
