<?xml version="1.0" encoding="utf-8"?>
<!-- Generator: Adobe Illustrator 15.0.2, SVG Export Plug-In . SVG Version: 6.00 Build 0)  -->
<!DOCTYPE svg PUBLIC "-//W3C//DTD SVG 1.1//EN" "http://www.w3.org/Graphics/SVG/1.1/DTD/svg11.dtd">
<svg version="1.1" xmlns="http://www.w3.org/2000/svg" xmlns:xlink="http://www.w3.org/1999/xlink" x="0px" y="0px" width="450px"
	 height="450px" viewBox="0 0 450 450" enable-background="new 0 0 450 450" xml:space="preserve">
<g id="Layer_1">
</g>
<g id="Layer_2">
	<g>
		<polygon points="147.186,142.759 147.186,86.393 87.184,86.393 27.18,86.393 27.18,142.759 27.18,199.126 87.184,199.126 
			147.186,199.126 		"/>
		<path fill="#FFFFFF" d="M58.544,142.988v-40.686h15.837c14.284,0,16.182,0.088,19.349,0.898
			c10.246,2.621,16.863,9.754,17.426,18.78c0.477,7.667-2.207,13.209-8.248,17.028l-1.773,1.125l2.279,0.802
			c5.856,2.063,10.684,6.186,13.198,11.275c1.678,3.396,1.71,3.55,1.71,8.731c0,5.174-0.034,5.343-1.693,8.701
			c-3.742,7.569-10.299,11.787-20.783,13.367c-3.169,0.479-8.801,0.656-20.822,0.659l-16.479,0.001L58.544,142.988L58.544,142.988z"
			/>
		<path d="M91.907,170.472c7.581-1.097,11.64-4.863,11.64-10.803c0-3.759-1.38-6.246-4.514-8.133
			c-3.774-2.277-7.33-2.866-17.281-2.866h-8.66v11.136v11.137l7.841-0.009C85.246,170.927,90.184,170.72,91.907,170.472
			L91.907,170.472z"/>
		<path d="M86.339,135.285c7.313-1.55,10.318-5.102,9.846-11.64c-0.262-3.597-1.686-5.701-4.871-7.197
			c-2.38-1.114-3.037-1.2-10.382-1.341l-7.841-0.151v10.492v10.492l5.113-0.007C81.018,135.93,84.678,135.638,86.339,135.285
			L86.339,135.285z"/>
		<polygon points="285.829,142.759 285.829,86.393 225.602,86.393 165.37,86.393 165.37,142.759 165.37,199.126 225.602,199.126 
			285.829,199.126 		"/>
		<path fill="#FFFFFF" d="M197.189,143.027v-40.724l15.567,0.007c17.555,0.011,19.641,0.257,25.18,2.995
			c8.358,4.13,12.899,12.439,11.551,21.138c-0.28,1.821-0.899,4.185-1.375,5.253c-1.041,2.359-4.409,6.051-6.594,7.227
			c-1.651,0.89-2.072,1.564-0.972,1.564c1.521,0,8.054,3.798,10.388,6.04c5.14,4.938,7.385,12.629,5.625,19.248
			c-2.192,8.244-8.687,14.045-18.576,16.61c-3.453,0.896-5.205,0.986-22.271,1.168l-18.523,0.197V143.027L197.189,143.027z"/>
		<path d="M234.165,169.614c7.692-2.492,10.541-10.651,5.655-16.212c-3.2-3.647-7.62-4.714-19.563-4.726l-8.523-0.007v11.188v11.186
			l9.661-0.209C229.766,170.65,231.469,170.488,234.165,169.614L234.165,169.614z"/>
		<path d="M226.895,134.879c5.34-1.68,7.815-4.969,7.762-10.302c-0.035-3.348-0.809-5.202-2.926-6.98
			c-2.361-1.988-5.297-2.566-13.034-2.566h-6.963v10.518v10.519l6.479-0.248C222.061,135.672,225.585,135.29,226.895,134.879
			L226.895,134.879z"/>
		<polygon points="424.02,142.759 424.02,86.393 364.017,86.393 304.016,86.393 304.016,142.759 304.016,199.126 364.017,199.126 
			424.02,199.126 		"/>
		<path fill="#FFFFFF" d="M360.474,184.126c-16.387-2.31-29.43-11.874-35.354-25.926c-3.558-8.433-3.922-18.222-1.017-27.26
			c4.638-14.429,17.438-25.39,33.382-28.588c12.039-2.415,22.674-1.352,36.877,3.687l5.113,1.813v7.452
			c0,4.1-0.076,7.455-0.175,7.455c-0.094,0-2.496-1.107-5.34-2.46c-10.108-4.808-17.049-6.411-26.307-6.066
			c-4.851,0.179-6.314,0.423-9.979,1.662c-5.535,1.87-9.063,4.021-12.811,7.8c-5.08,5.121-7.674,11.652-7.662,19.274
			c0.014,8.093,2.504,14.265,7.893,19.569c6.054,5.949,14.021,8.905,24.148,8.951c8.975,0.041,16.521-1.966,26.021-6.926
			l5.115-2.671v7.641v7.642l-3.108,1.434c-8.525,3.928-15.697,5.501-26.209,5.742C366.811,184.447,362.046,184.347,360.474,184.126
			L360.474,184.126z"/>
		<path fill="#FF008D" d="M425.09,305.134l-0.361-2.8c-3.469-27.25-26.953-47.817-54.592-47.817
			c-20.414,0-38.263,11.146-47.819,27.64c-9.555-16.603-27.549-27.64-47.817-27.64c-17.487,0-33.076,8.174-43.211,20.9v-20.648
			h-4.237c-17.559,0-33.203,8.274-43.265,21.109c-10.062-13.133-25.905-21.643-43.681-21.643c-11.833,0-22.988,3.604-32.237,10.244
			v-39.382H84.664v116.312h-4.191c-17.649,0-31.985-14.254-31.985-31.723v-26.628h25.174v-22.942H48.488V225.08h-22.96v84.606
			c0,30.278,24.641,54.917,54.945,54.917h27.396v-55.458c0-17.921,14.145-31.994,32.237-31.994
			c17.631,0,31.984,14.344,31.984,31.994v55.458h22.96v-54.917c0-17.487,14.354-31.722,31.983-31.722h2.332
			c-6.351,8.978-10.062,19.907-10.062,31.722c0,30.278,24.731,54.917,55.179,54.917h44.586v-22.905h-44.586
			c-2.348,0-4.769-0.326-7.081-0.795l47.637-27.478c1.916,28.543,25.869,51.215,55.082,51.215h44.583v-22.924h-44.583
			c-2.386,0-4.771-0.308-7.082-0.796l59.596-34.306L425.09,305.134 M246.942,326.054c-2.891-4.985-4.444-10.55-4.444-16.367
			c0-17.992,14.099-31.992,31.983-31.992c11.689,0,22.419,6.34,27.82,16.114L246.942,326.054z M342.569,326.054
			c-2.891-4.95-4.408-10.55-4.408-16.367c0-17.956,14.019-31.974,31.976-31.974c11.669,0,22.418,6.34,27.819,16.112L342.569,326.054
			z"/>
	</g>
</g>
</svg>
