<?xml version="1.0" encoding="UTF-8" standalone="no"?>
<!-- Created with Inkscape (http://www.inkscape.org/) -->

<svg
   xmlns:svg="http://www.w3.org/2000/svg"
   xmlns="http://www.w3.org/2000/svg"
   version="1.1"
   width="272.26584"
   height="200"
   viewBox="-0.836 -0.761 272.26584 200"
   id="svg2"
   xml:space="preserve">
<defs
   id="defs4">
</defs>











<polyline
   points="0,0 27.571,0 27.571,20.253 0,20.253 0,0 "
   id="polyline6"
   transform="matrix(9.8750802,0,0,9.8750802,-0.836,-0.761)" /><polygon
   points="4.171,10.188 6.44,10.188 6.44,9.437 3.335,9.437 3.335,15.254 4.171,15.254 4.171,12.551 6.44,12.551 6.44,11.8 4.171,11.8 "
   transform="matrix(9.8750802,0,0,9.8750802,-0.836,-0.761)"
   id="polygon8"
   style="fill:#ffffff" /><path
   d="m 70.659581,121.14687 c 0,15.58287 11.869846,29.47711 30.652249,29.47711 19.46378,0 31.08675,-13.97324 31.08675,-29.47711 0,-15.98776 -11.95872,-29.467244 -30.91887,-29.467244 -18.61453,-0.0099 -30.820129,13.548614 -30.820129,29.467244 m 8.502444,0 c 0,-12.62036 9.519577,-21.893058 22.317685,-21.893058 12.89685,0 22.40655,9.262828 22.40655,21.893058 0,12.55122 -9.5097,21.9128 -22.40655,21.9128 -12.798108,-0.01 -22.317685,-9.36158 -22.317685,-21.9128"
   id="path10"
   style="fill:#ffffff" /><path
   d="m 189.06179,92.430132 h -8.26544 v 33.446898 c 0,5.38192 -0.66163,9.60845 -3.61428,12.55123 -2.6169,2.61689 -7.15943,4.64128 -13.47948,4.64128 -4.95729,0 -9.10483,-1.60963 -12.38335,-4.88816 -2.6169,-2.6169 -3.45628,-5.31279 -3.45628,-11.80072 V 92.430132 h -8.25557 V 128.1483 c 0,15.66187 11.79085,22.47568 23.9372,22.47568 17.08388,0 25.5172,-9.26283 25.5172,-23.32494 V 92.430132"
   id="path12"
   style="fill:#ffffff" /><path
   d="m 200.55639,92.420257 v 57.453213 h 8.26544 V 124.9389 h 3.45628 c 4.20678,0 7.65318,1.36276 15.23724,13.14373 l 7.58407,11.79084 h 9.85533 c -3.95004,-5.47079 -5.3918,-7.41618 -7.83094,-11.36621 -4.37466,-7.16931 -7.58406,-12.47223 -12.79811,-15.91863 6.1423,-2.43915 9.59858,-7.41619 9.59858,-14.06212 0,-9.954078 -7.24831,-16.106253 -18.8614,-16.106253 h -14.50649 m 8.25556,7.080432 h 5.29305 c 8.01856,0 11.21809,3.288401 11.29709,8.680191 0.0889,4.78942 -2.44902,9.34183 -11.29709,9.34183 h -5.29305 V 99.500689"
   id="path14"
   style="fill:#ffffff" /><path
   d="m 178.89046,48.861278 c -0.16788,-0.01975 -0.30613,-0.04937 -0.474,-0.079 l -0.17776,-0.01975 c -0.26662,-0.0395 -0.53325,-0.079 -0.79,-0.09875 -0.17775,-0.0099 -0.3555,-0.01975 -0.53326,-0.0395 -0.32587,-0.0099 -0.632,-0.01975 -0.948,-0.01975 -0.13826,0 -0.21726,0 -0.35551,0 -0.25675,0.0099 -0.5135,0.01975 -0.76038,0.02963 -0.13825,0.0099 -0.26663,0.01975 -0.41475,0.0395 -0.20738,0.0099 -0.395,0.0395 -0.59251,0.06913 l -0.17775,0.01975 -0.17775,0.02963 -0.22713,0.0395 c -0.0987,0.01975 -0.1975,0.02962 -0.28637,0.04937 -0.13825,0.02963 -0.25676,0.04938 -0.40488,0.079 -0.80976,0.167876 -1.54051,0.395003 -2.24164,0.66163 -0.35551,0.138251 -0.69126,0.276502 -1.02701,0.454254 -0.26663,0.128376 -0.52338,0.256752 -0.77026,0.414753 -0.24688,0.138251 -0.48388,0.266627 -0.70113,0.424629 -0.12838,0.08888 -0.25675,0.177751 -0.37525,0.256752 -0.10863,0.08888 -0.20738,0.158001 -0.30613,0.227127 -0.21725,0.167876 -0.42463,0.335752 -0.62213,0.503629 -0.18763,0.177751 -0.3555,0.335752 -0.53326,0.493754 -0.13825,0.148126 -0.26662,0.286377 -0.40487,0.444378 -0.14813,0.158002 -0.27651,0.296253 -0.40488,0.464129 -0.14813,0.177752 -0.2765,0.345628 -0.40488,0.54313 -0.0987,0.138251 -0.20738,0.276502 -0.29625,0.414753 -0.0691,0.09875 -0.12838,0.197501 -0.18763,0.296252 -0.34563,0.58263 -0.66163,1.194885 -0.91838,1.856515 -0.316,0.829507 -0.55301,1.718264 -0.68138,2.666272 -0.0395,0.286377 -0.0593,0.60238 -0.079,0.908507 -0.0198,0.227127 -0.0198,0.483879 -0.0198,0.720881 0,0.187627 0,0.355503 0,0.54313 0.0198,0.187626 0.0395,0.365378 0.0593,0.553004 l 0.0197,0.138251 c 0.0198,0.207377 0.0592,0.424629 0.0987,0.62213 0,0.08888 0.0296,0.177752 0.0494,0.246877 0.0395,0.177752 0.079,0.345628 0.11851,0.52338 0.0593,0.217251 0.12837,0.434503 0.20737,0.64188 0.0889,0.246877 0.17775,0.513504 0.28638,0.750506 0.158,0.395003 0.32588,0.770256 0.52338,1.125759 0.12837,0.207377 0.22713,0.404878 0.36538,0.612255 0.0987,0.148126 0.1975,0.296252 0.28637,0.444379 0.13825,0.197501 0.26663,0.385128 0.40488,0.553004 0.158,0.187627 0.29625,0.365378 0.43451,0.533254 0.18762,0.207377 0.36537,0.395004 0.553,0.58263 l 0.0987,0.08888 c 0.14813,0.148126 0.28638,0.296252 0.48388,0.454254 0.12838,0.09875 0.24688,0.217251 0.395,0.325877 0.12838,0.09875 0.25676,0.197502 0.40488,0.306128 0.16788,0.118501 0.3555,0.237002 0.54313,0.365378 0.20738,0.138251 0.41475,0.256752 0.65176,0.385128 0.44437,0.256752 0.93813,0.503629 1.47138,0.711006 0.20738,0.079 0.42463,0.167876 0.63201,0.237002 0.20737,0.06912 0.44438,0.138251 0.6715,0.207376 0.38513,0.128376 0.79001,0.217252 1.23439,0.296253 0.34563,0.06912 0.711,0.118501 1.06651,0.167876 0.37525,0.04938 0.76038,0.08888 1.16526,0.108626 0.1975,0.0099 0.38512,0.01975 0.58263,0.01975 0.0987,0 0.1975,0 0.2765,0 0.72088,0 1.38251,-0.01975 1.99476,-0.079 l 0.11851,-0.01975 c 0.24687,-0.0099 0.48387,-0.0395 0.711,-0.06912 0.34563,-0.04938 0.67151,-0.09875 1.00726,-0.148127 0.20738,-0.0395 0.38513,-0.079 0.58263,-0.118501 0.28638,-0.079 0.57275,-0.148126 0.83938,-0.207376 0.20738,-0.04938 0.38513,-0.09875 0.57276,-0.158001 0.20737,-0.06913 0.42462,-0.148127 0.62213,-0.207377 l 0.1975,-0.06913 c 0.1185,-0.0395 0.237,-0.08888 0.38513,-0.148126 0.20737,-0.079 0.45425,-0.187626 0.74063,-0.296252 0.16787,-0.06913 0.34562,-0.148127 0.52338,-0.237002 0.16787,-0.079 0.34562,-0.158002 0.53325,-0.237002 0.0593,-0.0395 0.14813,-0.06913 0.21725,-0.108626 V 65.76743 c -0.0592,0.02963 -0.10862,0.05925 -0.16787,0.09875 l -0.28638,0.187627 c -0.29625,0.187626 -0.60238,0.335752 -0.87888,0.513504 -0.31601,0.167876 -0.62213,0.325877 -0.93814,0.474004 -0.54313,0.256752 -1.04675,0.464128 -1.56026,0.64188 -0.94801,0.335753 -1.81701,0.553004 -2.58727,0.68138 -0.0987,0.01975 -0.18763,0.0395 -0.26663,0.04938 -0.21725,0.02962 -0.41475,0.06912 -0.62213,0.08888 -0.30612,0.0395 -0.5925,0.04937 -0.83938,0.06912 -0.16788,0 -0.316,0 -0.46413,0 -0.29625,0 -0.62213,0 -0.94801,-0.02963 -0.38512,-0.02962 -0.77025,-0.079 -1.16526,-0.138251 -0.632,-0.108626 -1.25413,-0.256752 -1.88614,-0.493754 -0.0889,-0.02963 -0.17775,-0.06913 -0.25675,-0.108626 -0.0691,-0.01975 -0.12837,-0.04938 -0.18762,-0.06913 -0.10863,-0.04937 -0.20738,-0.08888 -0.30613,-0.148126 -0.20738,-0.09875 -0.42463,-0.207377 -0.62213,-0.316003 -0.0987,-0.05925 -0.20738,-0.128376 -0.29625,-0.187626 -0.10863,-0.06913 -0.20738,-0.138251 -0.30613,-0.207377 -0.13825,-0.09875 -0.25675,-0.187626 -0.38513,-0.276502 -0.1185,-0.08888 -0.237,-0.197502 -0.33575,-0.276502 l -0.158,-0.128376 -0.079,-0.06913 -0.0395,-0.02962 -0.0494,-0.05925 c -0.20738,-0.197501 -0.38513,-0.385128 -0.553,-0.592504 -0.079,-0.108626 -0.17776,-0.217252 -0.24688,-0.335753 -0.0889,-0.09875 -0.158,-0.207377 -0.22713,-0.316003 -0.0593,-0.108626 -0.12837,-0.207376 -0.18762,-0.306127 -0.0988,-0.158001 -0.18763,-0.306128 -0.23701,-0.454254 -0.079,-0.148126 -0.13825,-0.266627 -0.1975,-0.395003 -0.0889,-0.217252 -0.17775,-0.434504 -0.22713,-0.651755 -0.0592,-0.158002 -0.10862,-0.325878 -0.14812,-0.483879 -0.1185,-0.454254 -0.18763,-0.869007 -0.20738,-1.22451 -0.0197,-0.128376 -0.0197,-0.266627 -0.0197,-0.375253 -0.0197,-0.177752 -0.0197,-0.335753 -0.0197,-0.454254 0,-0.079 0,-0.167876 0,-0.276502 0.0197,-0.237002 0.0395,-0.56288 0.0987,-0.918383 0.0296,-0.217251 0.0691,-0.454253 0.12838,-0.70113 0.0395,-0.158002 0.0889,-0.316003 0.14812,-0.503629 0.0395,-0.148127 0.0988,-0.306128 0.15801,-0.474004 0.0395,-0.09875 0.0889,-0.207377 0.13825,-0.316003 0.0592,-0.148126 0.13825,-0.286377 0.20737,-0.444378 0.0592,-0.118501 0.12838,-0.217252 0.18763,-0.335753 0.14813,-0.237002 0.30613,-0.503629 0.49375,-0.740631 0.079,-0.08888 0.13826,-0.177752 0.20738,-0.256752 0.0889,-0.108626 0.1975,-0.227127 0.28638,-0.335753 0.0593,-0.05925 0.10862,-0.108626 0.158,-0.167876 0.79988,-0.799882 1.69851,-1.402262 2.62677,-1.82689 0.158,-0.06913 0.29625,-0.128376 0.44438,-0.187627 0.158,-0.05925 0.29625,-0.108626 0.44438,-0.167876 0.16787,-0.05925 0.32588,-0.108626 0.48388,-0.148126 0.158,-0.04938 0.32587,-0.08888 0.46413,-0.118501 0.158,-0.02962 0.30612,-0.06913 0.474,-0.09875 0.16788,-0.0395 0.33575,-0.05925 0.50363,-0.079 0.16788,-0.02962 0.32588,-0.04937 0.49375,-0.05925 0.32588,-0.02963 0.63201,-0.0395 0.94801,-0.0395 0.0987,0 0.20738,0 0.30613,0 0.21725,0.0099 0.44438,0.0099 0.65175,0.02963 0.158,0.0099 0.28638,0.0099 0.43451,0.02963 0.2765,0.02962 0.553,0.05925 0.79,0.108626 0.21725,0.02962 0.44438,0.06912 0.64188,0.108626 0.30613,0.06912 0.61226,0.138251 0.84926,0.197501 0.18763,0.04938 0.32588,0.108626 0.46413,0.148127 0.20738,0.05925 0.40488,0.118501 0.54313,0.158001 0.22713,0.08888 0.37525,0.138251 0.37525,0.138251 0.21725,0.08888 0.42463,0.167876 0.62213,0.246877 0.2765,0.108626 0.54313,0.217252 0.79001,0.345628 0.21725,0.08888 0.42463,0.197501 0.61225,0.276502 0.158,0.079 0.29626,0.158001 0.43451,0.217252 0.24687,0.128376 0.44438,0.237002 0.62213,0.325877 l 0.44438,0.237002 v -4.266034 c 0,0 -0.26663,-0.108626 -0.73076,-0.286378 -0.20738,-0.06912 -0.44438,-0.167876 -0.72088,-0.246877 -0.14813,-0.06912 -0.30613,-0.128376 -0.49376,-0.187626 -0.1185,-0.0395 -0.26662,-0.08888 -0.40487,-0.138251 -0.17776,-0.05925 -0.33576,-0.108626 -0.52338,-0.158002 -0.1185,-0.04938 -0.23701,-0.08888 -0.38513,-0.128376 l -0.0988,-0.02962 c -0.13825,-0.0395 -0.26663,-0.079 -0.40488,-0.108626 -0.158,-0.04938 -0.30613,-0.08888 -0.46413,-0.128376 -0.10863,-0.01975 -0.20738,-0.05925 -0.30613,-0.079 -0.17775,-0.0395 -0.34562,-0.079 -0.52338,-0.118501 -0.1975,-0.0099 -0.36537,-0.04938 -0.553,-0.079 m -21.41905,-4.453661 h 33.98015 V 76.393002 H 157.47141 V 44.407617 z"
   id="path16"
   style="fill:#ffffff" /><path
   d="m 131.35182,62.04451 v 6.300301 h 4.07841 c 0,0 0.079,0 0.21725,-0.0099 0.13825,0 0.33576,-0.0099 0.56288,-0.02962 0.44438,-0.0395 1.03689,-0.138251 1.59977,-0.316003 0.5135,-0.187626 1.00725,-0.434503 1.39238,-0.809756 0.14813,-0.148126 0.26663,-0.306128 0.36538,-0.454254 0.316,-0.503629 0.395,-1.027008 0.41475,-1.313386 0.01,-0.128376 0.01,-0.207376 0.01,-0.207376 V 65.05641 c 0,-0.128377 -0.0198,-0.355503 -0.0889,-0.612255 -0.079,-0.286378 -0.20737,-0.632006 -0.474,-0.957883 -0.0494,-0.05925 -0.10863,-0.118501 -0.16788,-0.187627 -0.10862,-0.118501 -0.21725,-0.217252 -0.36538,-0.306127 -0.21725,-0.177752 -0.474,-0.316003 -0.7505,-0.434504 -0.37525,-0.158001 -0.78013,-0.276502 -1.23439,-0.355503 -0.22712,-0.04937 -0.474,-0.079 -0.72088,-0.108626 -0.158,-0.0099 -0.30612,-0.02963 -0.474,-0.0395 -0.12838,0 -0.2765,-0.0099 -0.41475,-0.0099 -1.45164,0 -3.95004,0 -3.95004,0"
   id="path18"
   style="fill:#ffffff" /><path
   d="m 131.35182,52.495308 v 5.964548 h 1.97502 c 0,0 0.12838,0 0.30613,-0.0099 0.13825,0 0.29625,-0.0099 0.44438,-0.01975 0.40487,-0.02963 0.96775,-0.08888 1.53063,-0.237002 0.10863,-0.0395 0.21725,-0.06913 0.32588,-0.108626 0.44438,-0.158001 0.86901,-0.385128 1.19489,-0.711006 0.26662,-0.246877 0.4345,-0.543129 0.553,-0.819632 0.13825,-0.345627 0.18763,-0.66163 0.20738,-0.898632 0.01,-0.207377 0.01,-0.335753 0.01,-0.335753 0,0 0.01,-0.09875 0,-0.246877 -0.01,-0.256752 -0.0592,-0.68138 -0.26663,-1.086258 -0.0987,-0.197502 -0.237,-0.385128 -0.42462,-0.56288 -0.21726,-0.227127 -0.49376,-0.395003 -0.78014,-0.533254 -0.553,-0.227127 -1.19488,-0.325878 -1.72813,-0.375253 -0.23701,-0.01975 -0.44438,-0.01975 -0.62213,-0.01975 h -2.72553"
   id="path20"
   style="fill:#ffffff" /><path
   d="m 127.22404,48.900778 v 23.028687 h 8.67032 c 0,0 4.21666,0.128376 6.5768,-2.212018 1.88614,-1.90589 1.75777,-4.098158 1.75777,-4.098158 0,0 0.13825,-2.300894 -1.61952,-4.058658 -1.50101,-1.501012 -3.41677,-1.896015 -3.41677,-1.896015 0,0 0.869,-0.414754 1.52076,-1.076384 0.316,-0.296252 1.41214,-1.313386 1.41214,-3.73278 0,-2.44902 -1.61952,-3.851282 -1.61952,-3.851282 0,0 -1.78739,-2.103392 -5.79667,-2.103392 h -7.48531 m -8.9172,-4.493161 h 33.99003 V 76.393002 H 118.30684 V 44.407617 z"
   id="path22"
   style="fill:#ffffff" /><path
   d="m 92.17738,62.04451 v 6.300301 h 4.078409 c 0,0 0.08888,0 0.217251,-0.0099 0.138251,0 0.335753,-0.0099 0.572755,-0.02962 0.444379,-0.0395 1.017133,-0.138251 1.589888,-0.316003 0.513504,-0.187626 1.017133,-0.434503 1.392387,-0.809756 0.14813,-0.148126 0.26663,-0.306128 0.36538,-0.454254 0.316,-0.503629 0.40488,-1.027008 0.41475,-1.313386 0.01,-0.128376 0.01,-0.207376 0.01,-0.207376 0,0 0.01,-0.05925 0,-0.158002 0,-0.128376 -0.0197,-0.355502 -0.079,-0.612255 -0.079,-0.286377 -0.22712,-0.632005 -0.474,-0.957882 -0.0592,-0.05925 -0.10862,-0.118501 -0.158,-0.187627 -0.118501,-0.118501 -0.237002,-0.217252 -0.365378,-0.306127 -0.227127,-0.177752 -0.483879,-0.316003 -0.760381,-0.434504 -0.365378,-0.158001 -0.780132,-0.276502 -1.234385,-0.355503 -0.227127,-0.02963 -0.454254,-0.05925 -0.720881,-0.08888 -0.148126,-0.0099 -0.306128,-0.02963 -0.474004,-0.0395 -0.138251,-0.0099 -0.286377,-0.01975 -0.424629,-0.01975 -1.451636,0 -3.950032,0 -3.950032,0"
   id="path24"
   style="fill:#ffffff" /><path
   d="m 92.17738,52.495308 v 5.964548 h 1.975016 c 0,0 0.128376,0 0.306128,-0.0099 0.138251,0 0.296252,-0.0099 0.444379,-0.01975 0.404878,-0.02963 0.967757,-0.08888 1.540512,-0.237002 0.118501,-0.0395 0.217252,-0.06913 0.335753,-0.108626 0.434503,-0.158001 0.859132,-0.385128 1.185009,-0.711006 0.266628,-0.246877 0.434504,-0.543129 0.553005,-0.819632 0.138251,-0.345627 0.187626,-0.66163 0.207377,-0.898632 0.01975,-0.207377 0.01975,-0.335753 0.01975,-0.335753 0,0 0,-0.09875 -0.0099,-0.246877 -0.0099,-0.256752 -0.06913,-0.68138 -0.266628,-1.086258 -0.09875,-0.197502 -0.237001,-0.385128 -0.424628,-0.56288 -0.227127,-0.237002 -0.493754,-0.404878 -0.780131,-0.533254 -0.56288,-0.237002 -1.194885,-0.335753 -1.738014,-0.375253 -0.227127,-0.01975 -0.444379,-0.01975 -0.62213,-0.01975 H 92.17738"
   id="path26"
   style="fill:#ffffff" /><path
   d="m 88.049597,48.900778 v 23.028687 h 8.680195 c 0,0 4.226538,0.128376 6.557058,-2.212018 1.90589,-1.90589 1.76763,-4.098158 1.76763,-4.098158 0,0 0.13826,-2.300894 -1.61951,-4.058658 -1.50101,-1.501012 -3.41678,-1.896015 -3.41678,-1.896015 0,0 0.85914,-0.414754 1.53064,-1.076384 0.30613,-0.296252 1.41214,-1.313386 1.41214,-3.73278 0,-2.44902 -1.61952,-3.851282 -1.61952,-3.851282 0,0 -1.787385,-2.103392 -5.806542,-2.103392 H 88.049597 M 79.132399,44.407617 H 113.12243 V 76.393002 H 79.132399 V 44.407617 z"
   id="path28"
   style="fill:#ffffff" />
</svg>